<svg width="117" height="60" viewBox="0 0 117 60" fill="none" xmlns="http://www.w3.org/2000/svg">
<path d="M18.52 44L8.36 31.56V44H2.76V16.08H8.36V28.6L18.52 16.08H25.28L13.76 29.92L25.6 44H18.52ZM49.8834 32.44C49.8834 33.24 49.8301 33.96 49.7234 34.6H33.5234C33.6568 36.2 34.2168 37.4533 35.2034 38.36C36.1901 39.2667 37.4034 39.72 38.8434 39.72C40.9234 39.72 42.4034 38.8267 43.2834 37.04H49.3234C48.6834 39.1733 47.4568 40.9333 45.6434 42.32C43.8301 43.68 41.6034 44.36 38.9634 44.36C36.8301 44.36 34.9101 43.8933 33.2034 42.96C31.5234 42 30.2034 40.6533 29.2434 38.92C28.3101 37.1867 27.8434 35.1867 27.8434 32.92C27.8434 30.6267 28.3101 28.6133 29.2434 26.88C30.1768 25.1467 31.4834 23.8133 33.1634 22.88C34.8434 21.9467 36.7768 21.48 38.9634 21.48C41.0701 21.48 42.9501 21.9333 44.6034 22.84C46.2834 23.7467 47.5768 25.04 48.4834 26.72C49.4168 28.3733 49.8834 30.28 49.8834 32.44ZM44.0834 30.84C44.0568 29.4 43.5368 28.2533 42.5234 27.4C41.5101 26.52 40.2701 26.08 38.8034 26.08C37.4168 26.08 36.2434 26.5067 35.2834 27.36C34.3501 28.1867 33.7768 29.3467 33.5634 30.84H44.0834ZM59.5709 25.28C60.2909 24.1067 61.2243 23.1867 62.3709 22.52C63.5443 21.8533 64.8776 21.52 66.3709 21.52V27.4H64.8909C63.1309 27.4 61.7976 27.8133 60.8909 28.64C60.0109 29.4667 59.5709 30.9067 59.5709 32.96V44H53.9709V21.84H59.5709V25.28ZM72.9828 19.2C71.9695 19.2 71.1295 18.8933 70.4628 18.28C69.8228 17.64 69.5028 16.8533 69.5028 15.92C69.5028 14.9867 69.8228 14.2133 70.4628 13.6C71.1295 12.96 71.9695 12.64 72.9828 12.64C73.9695 12.64 74.7828 12.96 75.4228 13.6C76.0628 14.2133 76.3828 14.9867 76.3828 15.92C76.3828 16.8533 76.0628 17.64 75.4228 18.28C74.7828 18.8933 73.9695 19.2 72.9828 19.2ZM75.7428 47.64C75.7428 50.0933 75.1295 51.8533 73.9028 52.92C72.7028 54.0133 70.9695 54.56 68.7028 54.56H66.2228V49.8H67.8228C68.6761 49.8 69.2761 49.6267 69.6228 49.28C69.9695 48.96 70.1428 48.4267 70.1428 47.68V21.84H75.7428V47.64ZM79.8356 32.84C79.8356 30.6 80.2756 28.6133 81.1556 26.88C82.0623 25.1467 83.2756 23.8133 84.7956 22.88C86.3423 21.9467 88.0623 21.48 89.9556 21.48C91.609 21.48 93.049 21.8133 94.2756 22.48C95.529 23.1467 96.529 23.9867 97.2756 25V21.84H102.916V44H97.2756V40.76C96.5556 41.8 95.5556 42.6667 94.2756 43.36C93.0223 44.0267 91.569 44.36 89.9156 44.36C88.049 44.36 86.3423 43.88 84.7956 42.92C83.2756 41.96 82.0623 40.6133 81.1556 38.88C80.2756 37.12 79.8356 35.1067 79.8356 32.84ZM97.2756 32.92C97.2756 31.56 97.009 30.4 96.4756 29.44C95.9423 28.4533 95.2223 27.7067 94.3156 27.2C93.409 26.6667 92.4356 26.4 91.3956 26.4C90.3556 26.4 89.3956 26.6533 88.5156 27.16C87.6356 27.6667 86.9156 28.4133 86.3556 29.4C85.8223 30.36 85.5556 31.5067 85.5556 32.84C85.5556 34.1733 85.8223 35.3467 86.3556 36.36C86.9156 37.3467 87.6356 38.1067 88.5156 38.64C89.4223 39.1733 90.3823 39.44 91.3956 39.44C92.4356 39.44 93.409 39.1867 94.3156 38.68C95.2223 38.1467 95.9423 37.4 96.4756 36.44C97.009 35.4533 97.2756 34.28 97.2756 32.92ZM111.225 19.2C110.238 19.2 109.412 18.8933 108.745 18.28C108.105 17.64 107.785 16.8533 107.785 15.92C107.785 14.9867 108.105 14.2133 108.745 13.6C109.412 12.96 110.238 12.64 111.225 12.64C112.212 12.64 113.025 12.96 113.665 13.6C114.332 14.2133 114.665 14.9867 114.665 15.92C114.665 16.8533 114.332 17.64 113.665 18.28C113.025 18.8933 112.212 19.2 111.225 19.2ZM113.985 21.84V44H108.385V21.84H113.985Z" fill="black"/>
<circle cx="111" cy="16" r="4" fill="#0284C7"/>
</svg>
